<svg xmlns="http://www.w3.org/2000/svg" viewBox="0 0 32 32" fill="none">
  <rect width="32" height="32" rx="8" fill="url(#g)"/>
  <path d="M8 22V10h4.5c2.2 0 3.7 1.2 3.7 3.1 0 1.3-.7 2.3-1.8 2.8L17 22h-3l-2.2-5.5H11V22H8zm3-8.2h1.4c.9 0 1.4-.4 1.4-1.1s-.5-1.1-1.4-1.1H11v2.2zm9.5 8.5c-2.8 0-4.8-2-4.8-5s2-5 4.8-5 4.8 2 4.8 5-2 5-4.8 5zm0-2.2c1.4 0 2.3-1.1 2.3-2.8s-.9-2.8-2.3-2.8-2.3 1.1-2.3 2.8.9 2.8 2.3 2.8z" fill="#fff"/>
  <defs>
    <linearGradient id="g" x1="0" y1="0" x2="32" y2="32" gradientUnits="userSpaceOnUse">
      <stop stop-color="#4f46e5"/>
      <stop offset="1" stop-color="#0891b2"/>
    </linearGradient>
  </defs>
</svg>
